<svg width="18" height="18" viewBox="0 0 18 18" fill="none" xmlns="http://www.w3.org/2000/svg">
<g id="verify 1">
<g id="Layer 2">
<path id="Vector" d="M14.6615 6.68928C14.4612 6.48732 14.3484 6.21471 14.3473 5.93028V4.97178C14.3465 4.38908 14.1146 3.83048 13.7025 3.41852C13.2904 3.00656 12.7317 2.77487 12.149 2.77428H11.192C11.0511 2.77465 10.9115 2.74714 10.7812 2.69333C10.651 2.63953 10.5326 2.56049 10.433 2.46078L9.61553 1.64253C9.20302 1.23107 8.64416 1 8.06153 1C7.47889 1 6.92004 1.23107 6.50753 1.64253L5.69003 2.46078C5.59049 2.56063 5.47219 2.6398 5.34192 2.69374C5.21166 2.74767 5.07201 2.7753 4.93103 2.77503H3.97328C3.39058 2.77562 2.8319 3.00731 2.4198 3.41927C2.0077 3.83123 1.77582 4.38983 1.77503 4.97253V5.93028C1.77426 6.21441 1.66164 6.48681 1.46153 6.68853L0.642526 7.50678C0.231067 7.91929 0 8.47814 0 9.06078C0 9.64341 0.231067 10.2023 0.642526 10.6148L1.46153 11.4323C1.66182 11.6342 1.77469 11.9068 1.77578 12.1913V13.1498C1.77657 13.7325 2.00845 14.2911 2.42055 14.703C2.83265 15.115 3.39133 15.3467 3.97403 15.3473H4.93103C5.07201 15.347 5.21166 15.3746 5.34192 15.4286C5.47219 15.4825 5.59049 15.5617 5.69003 15.6615L6.50753 16.4798C6.91994 16.8914 7.47883 17.1226 8.06153 17.1226C8.64422 17.1226 9.20311 16.8914 9.61553 16.4798L10.433 15.6615C10.5326 15.5617 10.6509 15.4825 10.7811 15.4286C10.9114 15.3746 11.051 15.347 11.192 15.3473H12.1498C12.7325 15.3467 13.2912 15.115 13.7033 14.703C14.1154 14.2911 14.3472 13.7325 14.348 13.1498V12.1913C14.3487 11.907 14.4616 11.6344 14.6623 11.433L15.4805 10.6148C15.892 10.2023 16.1231 9.64341 16.1231 9.06078C16.1231 8.47814 15.892 7.91929 15.4805 7.50678L14.6615 6.68928Z" fill="#2196F3"/>
<path id="Vector_2" d="M8.06152 14.1233C10.8575 14.1233 13.124 11.8567 13.124 9.06078C13.124 6.26483 10.8575 3.99828 8.06152 3.99828C5.26558 3.99828 2.99902 6.26483 2.99902 9.06078C2.99902 11.8567 5.26558 14.1233 8.06152 14.1233Z" fill="#29B3FF"/>
<path id="Vector_3" d="M7.31153 11.1233C7.23765 11.1235 7.16447 11.109 7.09623 11.0806C7.028 11.0523 6.96607 11.0107 6.91403 10.9583L5.41403 9.45828C5.31467 9.35164 5.26058 9.21061 5.26315 9.06488C5.26572 8.91916 5.32475 8.78012 5.42781 8.67706C5.53087 8.574 5.66991 8.51496 5.81564 8.51239C5.96137 8.50982 6.1024 8.56392 6.20903 8.66328L7.31153 9.76503L9.91403 7.16328C10.0207 7.06392 10.1617 7.00982 10.3074 7.01239C10.4531 7.01497 10.5922 7.074 10.6952 7.17706C10.7983 7.28012 10.8573 7.41916 10.8599 7.56488C10.8625 7.71061 10.8084 7.85164 10.709 7.95828L7.70903 10.9583C7.657 11.0107 7.59507 11.0523 7.52683 11.0806C7.45859 11.109 7.38541 11.1235 7.31153 11.1233Z" fill="white"/>
</g>
</g>
</svg>
